# This file uses centimeters as units for non-parametric coordinates.

mtllib Wood.mtl
g default
v -1052.754883 0.000000 -809.109741
v 1052.754883 0.000000 -809.109741
v -1052.754883 -0.000000 809.109802
v 1052.754883 -0.000000 809.109802
vt 0.001531 0.998008
vt 0.001531 0.001992
vt 0.767033 0.998008
vt 0.767033 0.001992
vn 0.000000 -1.000000 -0.000000
vn 0.000000 -1.000000 -0.000000
vn 0.000000 -1.000000 -0.000000
vn 0.000000 -1.000000 -0.000000
s 1
g pPlane1
usemtl Wood
f 1/1/1 2/2/2 3/3/3
f 3/3/3 2/2/2 4/4/4
